<svg xmlns="http://www.w3.org/2000/svg" aria-hidden="true" style="position:absolute;width:0;height:0;overflow:hidden">
  <defs>
    <symbol id="camera" viewBox="0 0 32 32">
      <path d="M21 17a4.997 4.997 0 0 1-5 5 5 5 0 0 1-5-5 4.998 4.998 0 0 1 8.536-3.536A5 5 0 0 1 21 17"/>
      <path d="M4 8a4.003 4.003 0 0 0-4 4v12a4.003 4.003 0 0 0 4 4h24a4.003 4.003 0 0 0 4-4V12a4.003 4.003 0 0 0-4-4h-2.344a4 4 0 0 1-2.828-1.172l-1.656-1.656A4 4 0 0 0 18.344 4h-4.688a4 4 0 0 0-2.828 1.172L9.172 6.828A4 4 0 0 1 6.344 8zm1 4a.997.997 0 0 1-1-1 .997.997 0 0 1 1-1 .997.997 0 0 1 1 1 .997.997 0 0 1-1 1m18 5a6.999 6.999 0 1 1-14 0 7.003 7.003 0 0 1 7-7 7.003 7.003 0 0 1 7 7"/>
    </symbol>
    <symbol id="logo" viewBox="0 0 127 20">
      <path fill="#fff" d="M10.334 11.075H3.333v6.618H0V2h11.341v2.742H3.333V8.31h7.001zM17.09 15.424c1.894 0 2.853-1.182 2.853-3.545s-.959-3.522-2.853-3.522-2.853 1.159-2.853 3.522.959 3.545 2.853 3.545m0 2.576c-3.812 0-6.066-2.505-6.066-6.121 0-3.687 2.326-6.121 6.066-6.121 3.692 0 5.994 2.41 5.994 6.12 0 3.688-2.325 6.122-5.994 6.122M31.694 13.486h3.14C34.5 16.18 32.27 18 29.417 18c-3.213 0-5.42-2.103-5.42-6.263s2.207-5.98 5.516-5.98c3.069 0 5.155 1.726 5.346 4.468h-3.14c-.168-1.206-1.055-1.915-2.23-1.915-1.32 0-2.398.827-2.398 3.356s1.079 3.758 2.302 3.758 2.182-.685 2.302-1.938M46.378 17.693h-2.95v-1.631C42.615 17.385 41.392 18 39.76 18c-2.35 0-4.004-1.725-4.004-4.278V6.065h3.117v7.185c0 1.465.672 2.174 1.99 2.174 1.583 0 2.422-1.11 2.422-2.647V6.065h3.093zM57.839 9.586h-2.997c-.168-1.134-.791-1.536-2.206-1.536-1.175 0-1.846.284-1.846.97s.647.968 1.918 1.323c1.343.378 2.613.638 3.525.992 1.246.497 1.942 1.3 1.942 2.813 0 2.41-1.799 3.852-5.155 3.852-3.62 0-5.635-1.678-5.683-4.041h3.213c0 1.087.935 1.725 2.446 1.725 1.103 0 2.086-.331 2.086-1.205 0-.828-.888-1.088-1.895-1.324-1.99-.473-3.093-.803-3.932-1.323-1.103-.686-1.486-1.584-1.486-2.624 0-1.961 1.366-3.45 4.963-3.45 3.405 0 4.94 1.323 5.107 3.828M62.315 17.693h-3.333v-3.19h3.333zM73.788 11.075h-7v6.618h-3.334V2h11.341v2.742h-8.008V8.31h7.001zM78.28 17.693h-3.117V6.065h2.926v1.394c1.03-1.56 2.23-1.701 3.5-1.701h.408V8.9a5.3 5.3 0 0 0-.863-.07c-1.918 0-2.853.944-2.853 2.812zM89.427 13.273l.024-1.276c-.312.307-.863.473-2.014.685-1.775.331-2.35.828-2.35 1.82 0 .875.528 1.3 1.51 1.3 1.607 0 2.806-1.158 2.83-2.529m3.14 4.42h-2.9a4.5 4.5 0 0 1-.192-1.04c-.744.803-1.99 1.347-3.573 1.347-2.685 0-3.932-1.3-3.932-3.19 0-3.357 2.278-3.735 5.419-4.16 1.558-.213 1.99-.52 1.99-1.324 0-.756-.767-1.205-1.99-1.205-1.415 0-1.99.685-2.134 1.725h-2.901c.047-2.41 1.39-4.088 5.179-4.088 3.74 0 5.035 1.654 5.035 4.585zM110.822 17.693h-3.045V10.65c0-1.394-.743-2.387-1.846-2.387-1.151 0-1.99 1.063-1.99 2.482v6.948h-3.117v-6.996c0-1.867-.504-2.34-1.87-2.34-1.247 0-1.895.757-1.895 2.27v7.066h-3.117V6.065h2.926v1.702c.79-1.537 1.894-2.01 3.452-2.01 1.607 0 2.374.497 3.285 1.844.647-1.276 1.702-1.843 3.189-1.843 2.374 0 4.028 1.701 4.028 3.876zM114.968 10.745h4.819c-.048-1.726-1.199-2.553-2.422-2.553-1.246 0-2.277.945-2.397 2.553M123 12.682h-8.128c.096 1.75 1.103 2.884 2.637 2.884 1.007 0 1.894-.497 2.11-1.3h3.213c-.719 2.387-2.661 3.734-5.179 3.734-3.932 0-5.898-2.127-5.898-6.334 0-3.592 2.086-5.908 5.706-5.908S123 8.074 123 12.682"/>
    </symbol>
    <symbol id="burger-icon" viewBox="0 0 24 24">
      <path d="M3.6 6a1.2 1.2 0 0 1 1.2-1.2h14.4a1.2 1.2 0 1 1 0 2.4H4.8A1.2 1.2 0 0 1 3.6 6M3.6 12a1.2 1.2 0 0 1 1.2-1.2h14.4a1.2 1.2 0 1 1 0 2.4H4.8A1.2 1.2 0 0 1 3.6 12M3.6 18a1.2 1.2 0 0 1 1.2-1.2h14.4a1.2 1.2 0 1 1 0 2.4H4.8A1.2 1.2 0 0 1 3.6 18"/>
    </symbol>
    <symbol id="student-arrow" viewBox="0 0 18 9">
      <path fill-rule="evenodd" d="M12.5 0 18 4.33l-5.5 4.33V5.08H0v-1.5h12.5z" clip-rule="evenodd"/>
    </symbol>
    <symbol id="star" viewBox="0 0 20 20">
      <path stroke-linecap="round" stroke-linejoin="round" stroke-width="1.5" d="m9.083.75 2.575 5.217 5.759.841-4.167 4.059.983 5.733-5.15-2.708-5.15 2.708.984-5.733L.75 6.808l5.758-.841z"/>
    </symbol>
    <symbol id="courses-arrow" stroke-linecap="round" stroke-linejoin="round" stroke-width="1.3" viewBox="0 0 20 20">
      <path d="M5 15 15 5M8.333 5H15v6.667"/>
    </symbol>
    <symbol id="stars-review-active" viewBox="0 0 16 16">
     <path d="M6.75 0.75L8.604 4.69953L12.75 5.33675L9.75 8.40931L10.458 12.75L6.75 10.6995L3.042 12.75L3.75 8.40931L0.75 5.33675L4.896 4.69953L6.75 0.75Z" stroke-width="1.5" stroke-linecap="round" stroke-linejoin="round" />
    </symbol>
    <symbol id="stars-review-not-active" viewBox="0 0 16 16">
      <path d="M8 2L9.854 5.94953L14 6.58675L11 9.65931L11.708 14L8 11.9495L4.292 14L5 9.65931L2 6.58675L6.146 5.94953L8 2Z" stroke-width="1.5" stroke-linecap="round" stroke-linejoin="round" />
    </symbol>
  </defs>
</svg>